<?xml version="1.0" standalone="no"?>
<!DOCTYPE svg PUBLIC "-//W3C//DTD SVG 20010904//EN"
 "http://www.w3.org/TR/2001/REC-SVG-20010904/DTD/svg10.dtd">
<svg version="1.0" xmlns="http://www.w3.org/2000/svg"
 width="1067.000000pt" height="1067.000000pt" viewBox="0 0 1067.000000 1067.000000"
 preserveAspectRatio="xMidYMid meet">
<metadata>
Created by potrace 1.11, written by Peter Selinger 2001-2013
</metadata>
<g transform="translate(0.000000,1067.000000) scale(0.100000,-0.100000)"
fill="#000000" stroke="none">
<path d="M4760 8880 c-80 -14 -127 -78 -115 -155 7 -52 36 -91 78 -109 29 -11
139 -14 177 -5 20 5 81 70 74 80 -2 4 0 10 5 14 17 10 5 83 -19 118 -13 18
-35 39 -50 45 -33 15 -102 20 -150 12z"/>
<path d="M5325 8854 c-5 -1 -22 -5 -36 -8 -53 -12 -99 -73 -99 -132 0 -29 25
-82 51 -106 18 -18 97 -40 111 -32 4 3 13 2 20 -2 7 -5 36 -9 66 -11 40 -3 65
2 97 18 24 12 42 26 39 31 -3 4 0 8 5 8 6 0 11 7 11 15 0 8 3 15 8 15 7 0 7
22 3 86 -2 38 -64 94 -111 99 -8 2 -37 6 -65 10 -77 11 -89 12 -100 9z"/>
<path d="M5891 8744 c-37 -15 -53 -30 -71 -64 -15 -27 -20 -109 -7 -125 32
-43 49 -57 81 -70 20 -8 36 -12 36 -9 0 4 7 1 15 -6 8 -7 15 -10 15 -7 0 3 21
0 48 -7 26 -7 56 -11 67 -11 11 1 29 2 41 3 46 4 101 83 97 140 0 6 -1 20 -2
30 0 10 -10 28 -21 40 -11 12 -20 25 -20 31 0 5 -13 12 -30 16 -16 4 -30 12
-30 18 0 7 -4 6 -10 -3 -5 -8 -10 -10 -10 -4 0 9 -69 28 -141 38 -15 2 -41 -3
-58 -10z"/>
<path d="M6466 8557 c-64 -37 -87 -120 -51 -185 21 -37 59 -62 155 -97 25 -10
52 -20 60 -25 8 -4 24 -4 35 0 11 4 25 3 31 -1 8 -6 14 -4 18 6 3 8 12 15 20
15 30 0 87 102 65 116 -5 3 -7 10 -3 15 21 35 -34 99 -110 128 -28 10 -64 25
-81 32 -47 19 -100 18 -139 -4z"/>
<path d="M3677 8329 c-20 -3 -42 -11 -50 -17 -8 -7 -16 -10 -18 -8 -10 10 -48
-62 -52 -97 -5 -45 22 -103 60 -131 22 -16 45 -20 127 -21 56 0 106 2 111 6
10 7 17 9 33 9 14 0 58 43 71 67 6 12 11 42 11 67 0 39 -5 51 -39 87 -22 22
-45 38 -50 34 -6 -3 -11 -2 -11 3 0 10 -135 11 -193 1z"/>
<path d="M4280 8318 c-76 -21 -113 -102 -85 -188 12 -38 75 -86 101 -76 8 3
14 2 14 -3 0 -4 15 -8 33 -8 17 -1 60 -2 94 -3 76 -3 120 19 146 72 20 41 22
58 12 102 -7 33 -57 86 -80 86 -9 0 -14 3 -12 8 3 4 -14 8 -36 8 -23 1 -67 4
-97 6 -30 3 -71 1 -90 -4z"/>
<path d="M7021 8292 c-48 -31 -71 -90 -57 -147 9 -41 51 -89 87 -100 10 -4 19
-11 19 -16 0 -6 5 -7 10 -4 6 3 10 1 10 -5 0 -6 5 -8 10 -5 6 3 10 1 10 -4 0
-6 7 -11 15 -11 8 0 15 -5 15 -11 0 -6 7 -9 15 -5 8 3 15 1 15 -4 0 -6 23 -10
50 -10 28 0 50 4 50 9 0 5 11 12 24 15 27 7 60 65 62 111 1 39 -28 98 -60 118
-30 20 -90 55 -131 76 -46 23 -102 21 -144 -7z"/>
<path d="M3165 8281 c-2 -4 -18 -7 -35 -6 -16 1 -30 -1 -30 -4 0 -3 -19 -7
-42 -8 -23 -2 -44 -7 -47 -11 -3 -5 -14 -11 -23 -15 -44 -16 -72 -116 -47
-166 28 -55 88 -91 144 -85 75 7 187 35 209 51 73 53 63 188 -15 229 -34 17
-106 27 -114 15z"/>
<path d="M4909 8240 c-7 -5 -17 -6 -21 -4 -4 3 -8 0 -8 -5 0 -6 -6 -11 -12
-11 -23 0 -60 -70 -60 -114 0 -42 24 -101 35 -89 4 3 7 1 7 -5 0 -12 74 -54
82 -47 2 3 20 0 39 -6 48 -15 136 -19 169 -7 60 20 100 121 71 176 -6 12 -9
22 -6 22 4 0 -7 11 -23 25 -17 14 -35 25 -41 25 -6 0 -11 4 -11 8 0 4 -14 9
-32 10 -18 2 -35 6 -38 10 -3 4 -16 8 -30 9 -14 1 -44 3 -66 6 -23 3 -47 1
-55 -3z"/>
<path d="M2599 8165 c-5 -5 -15 -7 -86 -20 -24 -4 -43 -12 -43 -18 0 -6 -3 -8
-6 -4 -10 10 -86 -22 -105 -46 -10 -12 -24 -28 -30 -35 -6 -7 -8 -16 -5 -19 3
-3 1 -14 -5 -24 -6 -13 -6 -19 0 -19 6 0 8 -6 5 -14 -3 -8 3 -29 12 -48 10
-18 17 -36 16 -40 -1 -5 1 -7 6 -6 4 0 23 -6 42 -15 19 -8 38 -13 42 -11 5 3
8 0 8 -6 0 -6 5 -8 13 -3 6 4 23 9 37 11 13 2 27 6 30 10 3 4 10 8 15 9 6 0
24 3 40 6 90 14 148 78 143 159 -2 23 -6 48 -11 53 -38 50 -62 66 -91 64 -5 0
-12 4 -16 10 -3 6 -9 9 -11 6z"/>
<path d="M8463 8148 c-17 -5 -45 -21 -60 -37 -29 -29 -56 -94 -44 -106 6 -7 7
-12 10 -40 1 -19 54 -75 70 -75 6 0 11 -3 11 -8 0 -11 65 -44 92 -47 13 -1 38
4 56 11 17 7 32 10 32 7 0 -17 60 73 61 91 2 43 -3 78 -15 102 -12 21 -109 99
-128 103 -5 0 -9 1 -10 2 -16 5 -49 4 -75 -3z"/>
<path d="M5561 8092 c-1 -7 -6 -10 -12 -7 -13 9 -69 -13 -90 -35 -25 -25 -41
-60 -35 -76 3 -8 1 -14 -4 -14 -5 0 -8 -9 -7 -20 1 -11 4 -20 7 -20 3 0 6 -10
7 -22 3 -35 52 -71 131 -98 40 -13 75 -27 77 -30 8 -13 103 -2 128 14 13 9 30
27 37 41 7 14 16 25 20 25 5 0 6 31 1 92 -2 25 -63 86 -95 94 -14 3 -26 9 -26
13 0 4 -15 8 -32 9 -18 2 -37 7 -42 12 -6 6 -20 10 -32 10 -12 0 -25 6 -27 13
-4 9 -6 9 -6 -1z"/>
<path d="M7562 7954 c-11 -7 -21 -11 -24 -9 -11 12 -58 -58 -64 -95 -8 -50 9
-96 50 -133 87 -80 103 -93 128 -106 45 -23 120 -10 159 28 56 57 49 159 -16
212 -11 9 -36 31 -55 48 -67 61 -139 83 -178 55z"/>
<path d="M1976 7953 c-4 -4 -12 -8 -19 -9 -25 -3 -162 -71 -183 -90 -54 -49
-52 -152 4 -201 14 -13 31 -23 39 -23 8 0 12 -4 9 -8 -9 -14 76 -5 116 12 21
9 40 16 43 17 2 0 28 13 57 28 66 35 100 88 93 145 -5 41 -40 101 -65 110 -8
3 -25 10 -38 16 -16 7 -21 7 -16 -1 5 -8 1 -8 -13 0 -11 6 -23 7 -27 4z"/>
<path d="M6074 7830 c-124 -62 -92 -228 54 -274 12 -4 22 -12 22 -18 0 -6 3
-8 6 -5 4 4 19 -2 33 -11 24 -16 44 -19 107 -14 28 3 78 50 93 88 12 30 8 82
-8 113 -13 23 -39 45 -86 72 -120 68 -163 77 -221 49z"/>
<path d="M8869 7801 c-50 -20 -83 -72 -83 -129 1 -53 5 -63 47 -105 20 -21 37
-42 38 -45 2 -14 78 -73 101 -78 50 -11 69 -11 93 2 14 7 25 10 25 8 0 -3 11
8 25 24 43 51 51 96 28 152 -13 30 -116 139 -154 164 -26 16 -88 20 -120 7z"/>
<path d="M1383 7640 c-45 -20 -59 -30 -98 -70 -22 -22 -30 -40 -26 -62 0 -5
-3 -8 -8 -8 -12 0 6 -75 24 -104 24 -37 86 -60 139 -52 25 4 46 11 46 16 0 5
8 11 18 14 32 11 89 70 97 101 7 27 8 50 3 93 -1 6 -5 12 -9 12 -4 0 -10 8
-13 18 -8 23 -57 52 -98 57 -19 2 -51 -4 -75 -15z"/>
<path d="M3945 7543 c-34 -16 -80 -76 -71 -92 4 -5 2 -12 -3 -16 -7 -3 -7 -15
-1 -29 5 -13 6 -26 3 -29 -3 -3 0 -12 6 -19 6 -7 19 -22 29 -34 19 -22 50 -38
70 -35 6 1 12 -2 12 -6 0 -4 43 -8 95 -8 52 0 95 3 95 8 0 4 4 5 10 2 12 -7
80 54 83 75 2 8 5 20 8 25 16 28 -7 99 -43 133 -31 29 -51 33 -168 37 -68 2
-104 -2 -125 -12z"/>
<path d="M3530 7547 c-3 -3 -39 -8 -80 -11 -41 -3 -84 -8 -95 -10 -11 -3 -23
-5 -26 -5 -3 -1 -20 -14 -38 -30 -27 -24 -33 -38 -38 -83 -5 -46 -2 -60 18
-91 24 -37 57 -57 97 -60 12 -1 22 -5 22 -10 0 -6 5 -5 13 0 6 5 37 11 67 12
30 2 59 6 65 9 5 4 20 5 33 3 12 -1 22 2 22 8 0 5 8 12 18 15 24 8 55 63 49
87 -3 10 -1 19 5 19 6 0 7 8 3 18 -4 9 -8 26 -11 37 -2 11 -13 28 -25 38 -12
9 -17 17 -13 17 5 0 -4 7 -20 15 -16 9 -35 14 -42 11 -7 -3 -14 0 -16 5 -2 6
-6 8 -8 6z"/>
<path d="M6645 7510 c-3 -5 -12 -7 -20 -3 -8 3 -15 -1 -15 -8 0 -7 -3 -10 -6
-6 -8 8 -43 -23 -59 -53 -15 -30 -27 -92 -15 -85 4 2 8 -7 8 -22 0 -26 14 -42
112 -128 19 -16 38 -29 43 -27 4 1 7 -2 7 -7 0 -10 44 -24 75 -24 89 0 151 80
133 171 -8 35 -20 52 -81 104 -40 34 -75 66 -79 72 -4 6 -8 7 -8 3 0 -4 -8 -3
-18 2 -28 15 -71 21 -77 11z"/>
<path d="M7981 7504 c-39 -17 -58 -34 -72 -71 -14 -33 -18 -103 -7 -103 4 0 8
-5 8 -10 0 -6 12 -28 28 -49 15 -21 34 -49 42 -62 29 -45 72 -77 112 -83 21
-4 45 -3 51 1 7 4 14 8 17 8 9 0 75 45 67 45 -4 0 0 11 8 24 11 16 15 40 12
69 -6 76 -142 259 -171 230 -3 -3 -6 -1 -6 5 0 14 -50 12 -89 -4z"/>
<path d="M4582 7497 c-34 -11 -96 -72 -87 -87 3 -5 1 -11 -3 -14 -5 -3 -7 -22
-5 -42 9 -84 65 -128 171 -136 17 -1 32 -5 32 -8 0 -4 10 -6 23 -5 12 1 25 -3
29 -9 6 -8 8 -7 8 1 0 7 9 10 22 8 28 -6 93 31 109 63 17 31 18 134 1 140 -7
2 -12 9 -12 16 0 27 -93 61 -199 72 -24 2 -46 6 -50 8 -3 1 -21 -2 -39 -7z"/>
<path d="M2840 7448 c0 -4 -8 -7 -17 -7 -129 -1 -211 -94 -176 -197 21 -61 69
-92 136 -88 29 2 63 6 77 9 14 3 39 9 55 11 79 14 135 75 135 147 0 42 -46
113 -79 123 -33 10 -131 11 -131 2z"/>
<path d="M5152 7334 c-75 -59 -85 -155 -23 -215 23 -22 45 -33 121 -58 36 -13
72 -25 80 -28 8 -4 19 -5 23 -4 14 3 52 10 59 10 14 2 64 57 75 82 26 60 -7
138 -72 173 -22 11 -45 22 -50 23 -6 1 -30 10 -55 19 -59 21 -98 26 -106 12
-5 -7 -8 -7 -13 0 -4 7 -19 2 -39 -14z"/>
<path d="M9256 7325 c-14 -8 -26 -11 -26 -8 0 3 -9 -5 -21 -18 -56 -65 -58
-113 -6 -212 43 -82 75 -127 92 -127 7 0 15 -4 17 -9 4 -12 78 -21 78 -10 0 4
9 6 20 4 11 -2 20 0 20 5 0 5 8 11 18 14 27 9 59 75 57 116 -2 40 -9 60 -42
113 -13 20 -21 37 -17 37 3 0 -2 7 -10 16 -9 8 -14 20 -11 25 4 5 2 9 -3 9 -4
0 -19 10 -32 22 -13 12 -35 23 -50 24 -14 2 -25 3 -25 4 0 9 -39 5 -59 -5z"/>
<path d="M2211 7272 c-75 -25 -163 -80 -160 -100 4 -24 -2 -42 -12 -36 -7 4
-6 -3 2 -17 7 -13 12 -25 11 -26 -1 -2 -2 -12 -2 -23 0 -19 63 -91 78 -89 4 1
9 0 12 -1 14 -7 80 -5 80 2 0 4 3 7 8 7 4 -1 10 0 15 1 8 3 12 4 52 15 17 4
35 11 40 15 6 5 19 10 29 12 25 4 65 43 77 75 5 13 9 42 9 63 0 32 -7 47 -39
81 -22 22 -45 38 -50 34 -6 -3 -11 -1 -11 4 0 18 -50 12 -139 -17z"/>
<path d="M5753 7103 c-13 -3 -23 -9 -23 -14 0 -6 -3 -8 -7 -6 -5 2 -18 -6 -31
-19 -12 -13 -19 -24 -15 -24 4 0 2 -4 -5 -8 -13 -9 -23 -112 -10 -112 4 0 8
-6 8 -13 0 -14 50 -67 63 -67 4 0 26 -12 50 -27 71 -46 88 -53 132 -53 58 0
105 33 126 91 16 42 16 48 1 92 -12 34 -27 53 -52 68 -19 12 -37 24 -40 28 -3
3 -28 18 -56 33 -52 28 -99 38 -141 31z"/>
<path d="M1685 7046 c-11 -6 -22 -13 -25 -16 -3 -3 -11 -6 -18 -8 -7 -1 -31
-13 -52 -27 -22 -14 -42 -25 -45 -25 -14 0 -54 -53 -59 -80 -1 -3 -4 -10 -8
-16 -4 -6 -5 -14 -1 -18 3 -3 8 -18 9 -33 7 -64 77 -113 153 -107 24 2 47 7
50 12 3 5 35 24 71 42 71 36 121 83 108 103 -1 1 4 12 10 24 7 12 8 24 3 27
-4 3 -8 16 -7 28 1 27 -39 76 -74 90 -36 15 -92 17 -115 4z"/>
<path d="M7045 7051 c-11 -5 -33 -23 -50 -40 -25 -27 -30 -40 -29 -84 0 -45 8
-64 53 -137 61 -100 97 -127 159 -124 44 3 116 39 107 54 -3 5 0 10 6 12 17 6
26 69 16 108 -9 36 -73 142 -88 148 -5 2 -9 9 -9 15 -1 37 -116 70 -165 48z"/>
<path d="M8255 6951 c-81 -50 -91 -117 -37 -261 8 -21 9 -28 11 -43 2 -19 61
-78 72 -71 5 3 9 0 9 -5 0 -16 77 -13 113 4 50 24 74 70 71 134 -1 29 -7 65
-12 80 -6 14 -13 35 -18 46 -4 11 -8 27 -10 35 -5 26 -25 55 -50 73 -36 27
-113 31 -149 8z"/>
<path d="M3997 6854 c-3 -3 -38 -8 -79 -11 -40 -2 -79 -5 -86 -5 -38 -3 -95
-85 -95 -138 0 -53 46 -118 91 -128 33 -7 87 -9 97 -4 15 9 45 10 45 1 0 -5
12 -4 26 1 14 6 30 7 35 4 6 -3 17 0 26 8 9 7 18 12 20 10 7 -6 30 14 51 45
24 34 28 85 12 129 -12 30 -58 74 -77 74 -21 0 -27 2 -44 11 -9 4 -19 6 -22 3z"/>
<path d="M4423 6833 c-17 -9 -37 -26 -44 -39 -7 -13 -16 -24 -21 -24 -5 0 -7
-4 -4 -9 4 -5 2 -21 -4 -35 -5 -14 -6 -26 -1 -26 4 0 7 -11 6 -24 -4 -36 73
-111 98 -94 1 1 12 -4 25 -11 15 -8 22 -8 22 -1 0 6 5 8 12 4 6 -4 40 -9 74
-12 76 -5 124 15 155 64 53 86 -2 200 -101 211 -110 11 -187 10 -217 -4z"/>
<path d="M3377 6774 c-1 -2 -18 -6 -37 -9 -148 -25 -210 -75 -205 -165 3 -59
42 -108 99 -127 36 -11 204 23 254 52 29 18 49 48 44 68 -1 4 2 7 7 7 14 0 3
79 -16 111 -19 32 -73 62 -116 64 -15 1 -28 0 -30 -1z"/>
<path d="M5040 6757 c-52 -24 -95 -98 -85 -147 12 -64 54 -103 132 -121 26 -6
55 -13 63 -17 26 -10 130 -10 130 0 0 5 4 7 8 4 11 -6 56 41 67 69 11 28 15
95 5 95 -4 0 -11 11 -14 24 -10 42 -56 65 -181 92 -50 11 -102 11 -125 1z"/>
<path d="M9484 6759 c-3 -5 -8 -7 -12 -5 -10 6 -35 -14 -61 -52 -20 -29 -23
-41 -18 -90 16 -146 27 -184 64 -219 13 -12 23 -19 23 -16 0 3 7 -1 16 -8 38
-31 138 -3 171 48 18 27 27 139 13 158 -4 6 -7 17 -7 25 -1 20 -9 60 -19 85
-8 24 -60 75 -77 76 -7 0 -29 2 -50 4 -20 1 -40 -1 -43 -6z"/>
<path d="M6223 6720 c-28 -16 -54 -49 -59 -72 -1 -5 -2 -9 -4 -10 -6 -8 -4
-68 3 -68 4 0 6 -3 6 -7 -3 -21 7 -35 73 -102 92 -94 126 -108 194 -84 36 13
84 57 84 78 0 8 3 15 8 15 4 0 7 16 7 35 0 19 -4 35 -9 35 -5 0 -6 3 -3 6 12
12 -55 91 -136 162 -31 26 -46 32 -85 32 -29 0 -59 -8 -79 -20z"/>
<path d="M1149 6708 c-18 -11 -37 -25 -44 -31 -7 -7 -25 -21 -39 -31 -45 -32
-70 -60 -83 -89 -15 -34 -17 -93 -3 -102 6 -3 10 -14 10 -23 0 -45 124 -86
175 -58 52 29 176 140 182 163 9 38 9 96 0 108 -46 60 -74 77 -129 80 -22 1
-51 -6 -69 -17z"/>
<path d="M2734 6587 c-144 -59 -169 -81 -179 -156 -6 -48 9 -83 50 -121 21
-20 38 -25 83 -27 31 -1 59 2 62 6 3 4 28 15 55 25 111 40 154 89 150 168 -3
40 -34 92 -68 109 -36 20 -101 18 -153 -4z"/>
<path d="M5617 6576 c-50 -27 -76 -73 -72 -130 2 -46 38 -106 62 -106 8 0 12
-4 9 -8 -2 -4 3 -8 12 -9 9 -1 44 -14 77 -29 108 -48 183 -32 221 46 18 37 26
110 12 110 -4 0 -8 6 -8 14 0 29 -110 95 -202 121 -5 2 -9 4 -10 5 -13 11 -68
3 -101 -14z"/>
<path d="M7304 6479 c-3 -5 -9 -7 -13 -5 -9 6 -65 -45 -70 -64 -12 -44 -17
-100 -10 -107 4 -4 10 -30 13 -58 2 -27 5 -52 6 -55 1 -3 3 -9 4 -15 10 -49
74 -110 99 -93 1 1 12 -4 25 -11 17 -9 22 -9 22 0 0 7 3 10 6 6 18 -17 102 41
108 74 1 8 4 19 8 24 3 6 4 26 2 45 -2 19 -6 62 -9 94 -3 32 -9 64 -15 71 -5
6 -7 14 -5 17 6 6 -60 77 -72 79 -45 6 -95 5 -99 -2z"/>
<path d="M4597 6464 c-1 -1 -22 -5 -47 -8 -68 -9 -101 -16 -122 -27 -10 -5
-18 -7 -18 -4 0 4 -13 -8 -30 -26 -16 -18 -27 -36 -24 -41 3 -4 1 -8 -4 -8
-14 0 -6 -83 11 -117 18 -34 90 -75 122 -69 36 7 119 18 154 21 18 2 37 9 42
16 5 8 9 10 9 5 0 -5 11 3 24 17 70 75 49 191 -41 229 -25 10 -70 17 -76 12z"/>
<path d="M8338 6341 c-22 -13 -77 -90 -70 -98 1 -2 2 -4 1 -5 -3 -15 -11 -131
-11 -160 0 -71 61 -131 137 -134 56 -2 135 59 127 99 -1 4 1 7 6 7 4 0 8 12 9
28 10 165 10 174 -6 207 -8 19 -21 35 -28 35 -7 0 -13 4 -13 9 0 27 -112 36
-152 12z"/>
<path d="M2218 6333 c-10 -2 -18 -9 -18 -14 0 -6 -4 -8 -8 -5 -5 3 -24 -8 -43
-24 -19 -16 -38 -29 -43 -30 -10 0 -80 -60 -70 -60 3 0 2 -6 -4 -13 -12 -15
-23 -87 -13 -87 4 0 7 -10 8 -21 4 -55 113 -116 152 -85 12 9 13 8 7 -3 -9
-14 3 -7 114 65 66 42 106 81 96 92 -3 3 -1 11 5 18 10 12 8 55 -6 99 -15 48
-113 86 -177 68z"/>
<path d="M3975 6330 c-4 -6 -13 -9 -21 -6 -8 3 -14 2 -14 -3 0 -5 -10 -8 -22
-7 -13 1 -29 -4 -36 -11 -8 -7 -17 -11 -22 -8 -5 3 -11 1 -15 -5 -4 -6 -10 -8
-14 -5 -10 6 -81 -61 -82 -78 0 -7 -2 -21 -4 -32 -16 -77 52 -158 129 -156 38
1 42 2 134 31 101 31 142 74 142 147 0 43 -28 95 -62 117 -31 20 -104 30 -113
16z"/>
<path d="M726 6293 c-4 -5 -11 -8 -14 -8 -14 0 -49 -32 -82 -75 -19 -25 -37
-47 -41 -50 -17 -13 -45 -89 -43 -116 3 -47 47 -119 66 -108 4 3 11 -1 14 -9
9 -24 108 -14 142 15 37 30 126 153 130 178 2 13 8 18 15 13 9 -5 8 -2 0 8
-10 12 -10 18 -1 27 9 9 9 12 -1 12 -7 0 -10 3 -8 8 8 13 -29 67 -63 90 -32
22 -98 30 -114 15z"/>
<path d="M6633 6249 c-13 -4 -23 -6 -23 -3 0 3 -14 -10 -32 -30 -55 -62 -55
-105 1 -221 48 -100 79 -132 137 -139 46 -6 120 25 129 55 4 10 10 19 14 19 4
0 8 16 9 37 2 20 5 40 8 45 3 4 0 8 -6 8 -6 0 -9 4 -6 8 3 5 -8 36 -24 68 -16
32 -30 65 -30 72 0 6 -4 12 -10 12 -5 0 -10 5 -10 10 0 41 -104 80 -157 59z"/>
<path d="M5365 6200 c-62 -10 -114 -54 -118 -100 -1 -11 -5 -20 -9 -20 -5 0
-5 -8 0 -17 4 -10 8 -25 7 -33 -2 -20 32 -67 61 -87 14 -9 44 -17 67 -19 23
-1 42 -3 42 -4 0 -1 32 -3 70 -4 83 -2 126 18 151 69 23 50 24 85 1 131 -25
51 -63 71 -154 80 -37 3 -70 7 -73 8 -3 1 -23 -1 -45 -4z"/>
<path d="M9479 6147 c-14 -5 -35 -24 -47 -41 -22 -32 -45 -114 -36 -128 3 -4
1 -8 -5 -8 -5 0 -8 -8 -6 -17 1 -10 -1 -22 -5 -28 -8 -11 -6 -48 5 -82 4 -12
8 -26 8 -30 1 -14 48 -46 84 -58 26 -9 45 -10 72 -2 52 16 98 65 92 100 0 4 3
7 7 7 7 0 12 24 15 68 0 6 4 12 8 12 4 0 6 16 5 35 -2 20 1 38 5 41 11 6 -19
84 -40 104 -38 37 -103 48 -162 27z"/>
<path d="M4826 6122 c-15 -8 -33 -15 -40 -17 -46 -9 -97 -38 -119 -67 -32 -43
-36 -79 -16 -135 16 -42 26 -53 60 -69 23 -10 51 -18 64 -18 28 0 138 36 146
47 3 5 10 8 15 8 19 -2 50 13 70 33 20 19 41 76 39 101 -4 52 -33 98 -75 120
-33 16 -107 15 -144 -3z"/>
<path d="M3378 6100 c-2 -3 -21 -15 -43 -26 -124 -61 -154 -93 -160 -168 -2
-37 31 -103 57 -112 10 -3 18 -9 18 -13 0 -4 6 -8 13 -8 6 -1 27 -3 45 -6 17
-2 32 0 32 5 0 5 5 6 10 3 6 -3 24 3 40 15 17 12 30 18 30 14 0 -4 8 0 18 8 9
9 28 19 41 23 79 24 121 134 77 200 -24 36 -47 58 -66 65 -24 7 -109 7 -112 0z"/>
<path d="M5910 6042 c-66 -33 -93 -121 -58 -187 18 -33 23 -37 123 -97 39 -23
75 -46 81 -52 56 -52 84 -66 134 -66 75 0 132 55 136 130 2 61 -20 94 -111
165 -21 17 -43 32 -49 34 -6 2 -17 11 -24 20 -11 13 -12 13 -6 1 4 -9 -2 -7
-17 6 -35 30 -111 64 -145 64 -16 0 -45 -8 -64 -18z"/>
<path d="M1787 5972 c-4 -6 -14 -9 -21 -6 -8 3 -17 0 -21 -5 -3 -6 -10 -9 -15
-6 -5 3 -43 -29 -86 -70 -42 -41 -73 -75 -68 -75 5 0 3 -4 -5 -9 -21 -13 -26
-93 -8 -127 16 -31 57 -73 57 -58 0 5 4 3 8 -4 13 -20 94 -23 116 -3 16 13 18
13 11 1 -11 -21 122 109 146 142 21 29 32 87 19 103 -8 10 -10 16 -10 36 0 18
-64 69 -86 69 -12 0 -24 5 -26 12 -3 9 -6 9 -11 0z"/>
<path d="M7273 5854 c-47 -16 -75 -50 -93 -112 -7 -26 -14 -50 -15 -54 -2 -5
-4 -10 -5 -13 -1 -3 -3 -8 -5 -12 -1 -5 -4 -15 -8 -23 -11 -29 -14 -71 -6 -76
5 -3 9 -13 9 -23 0 -20 52 -73 78 -79 42 -8 83 -9 88 -1 3 5 9 7 13 4 13 -7
71 50 76 75 2 12 8 27 13 34 10 13 48 138 45 147 -1 4 -4 19 -7 34 -5 28 -47
97 -55 90 -2 -2 -13 1 -24 6 -30 17 -61 17 -104 3z"/>
<path d="M10330 5851 c0 -6 -6 -8 -12 -6 -15 5 -47 -20 -69 -55 -19 -30 -29
-128 -14 -134 6 -3 4 -5 -2 -5 -9 -1 -10 -8 -3 -25 5 -13 6 -27 3 -30 -4 -3
-1 -6 5 -6 7 0 12 -5 12 -11 0 -11 29 -44 39 -44 3 -1 16 -6 29 -13 12 -7 22
-10 22 -7 0 3 9 1 20 -5 11 -6 20 -7 20 -2 0 4 9 8 20 9 43 3 122 89 97 105
-9 6 -8 8 3 8 13 0 13 1 0 10 -8 5 -10 10 -4 10 8 0 11 19 10 53 -1 62 -31
118 -72 138 -36 18 -104 24 -104 10z"/>
<path d="M4352 5806 c-53 -18 -89 -58 -138 -153 -26 -49 -32 -71 -28 -105 4
-45 27 -84 60 -102 10 -6 21 -13 24 -16 10 -11 88 -11 95 -1 3 6 10 9 15 6 10
-6 70 55 70 72 0 7 5 13 10 13 6 0 10 7 10 15 0 8 8 23 18 33 30 30 52 96 43
129 -16 54 -33 80 -64 98 -18 11 -33 18 -34 17 -2 -1 -4 -2 -5 -1 -18 6 -50 3
-76 -5z"/>
<path d="M385 5757 c-25 -14 -48 -38 -60 -62 -11 -22 -24 -43 -30 -47 -5 -4
-7 -8 -3 -8 4 0 -3 -28 -16 -62 -33 -93 -14 -157 58 -195 80 -42 183 5 202 92
3 16 10 35 14 40 5 6 9 15 9 20 2 21 13 45 20 45 6 0 7 54 2 97 -1 12 -81 101
-81 90 0 -3 -11 -2 -25 3 -16 6 -26 6 -31 -1 -5 -8 -8 -8 -13 -1 -4 7 -21 3
-46 -11z"/>
<path d="M2863 5761 c-16 -7 -31 -19 -35 -25 -4 -6 -8 -7 -8 -2 0 20 -140
-134 -142 -156 -5 -71 6 -106 42 -138 66 -59 136 -49 229 34 89 80 116 125
106 179 -10 52 -54 106 -86 107 -9 0 -19 3 -22 7 -12 12 -56 9 -84 -6z"/>
<path d="M3721 5763 c-1 -7 -4 -12 -8 -12 -26 4 -47 -6 -87 -44 -25 -23 -46
-48 -46 -55 0 -6 -4 -12 -9 -12 -4 0 -21 -18 -36 -40 -53 -76 -35 -169 40
-208 65 -33 67 -34 59 -21 -5 9 -2 10 10 6 34 -13 90 25 155 105 54 67 65 86
68 126 4 38 0 54 -19 81 -25 38 -83 75 -104 67 -7 -3 -15 0 -18 7 -3 9 -5 9
-5 0z"/>
<path d="M8191 5757 c-6 -6 -11 -8 -11 -4 0 3 -11 -4 -24 -16 -29 -27 -116
-173 -108 -181 3 -3 1 -6 -5 -6 -15 0 -7 -79 12 -115 18 -32 101 -78 120 -66
6 3 18 6 28 7 9 1 21 2 25 3 13 2 66 54 80 79 47 84 71 132 66 132 -4 0 -2 6
2 13 5 6 9 19 9 28 -1 28 -36 94 -61 112 -27 21 -117 30 -133 14z"/>
<path d="M9305 5574 c-22 -7 -41 -18 -43 -24 -2 -5 -8 -8 -13 -4 -5 3 -9 -2
-9 -10 0 -9 -4 -16 -10 -16 -5 0 -10 -7 -10 -15 0 -8 -5 -15 -11 -15 -5 0 -8
-3 -5 -8 2 -4 -9 -26 -25 -50 -16 -23 -31 -57 -34 -74 -3 -17 -8 -35 -11 -39
-2 -4 0 -10 6 -14 6 -4 8 -10 5 -14 -10 -18 53 -88 87 -96 42 -9 89 -6 106 7
6 6 12 7 12 3 0 -4 13 10 30 31 16 22 34 44 39 50 5 6 12 20 15 32 4 12 12 22
17 22 6 0 8 4 4 9 -3 5 1 16 9 24 18 17 23 69 13 113 -8 31 -73 101 -84 91 -3
-3 -15 -2 -27 3 -13 5 -37 3 -61 -6z"/>
<path d="M6362 5497 c-37 -11 -91 -68 -93 -97 -1 -11 -2 -26 -3 -32 -1 -7 3
-19 8 -27 8 -11 8 -13 0 -8 -12 7 -16 -20 -16 -115 0 -84 58 -132 149 -124 42
4 58 11 79 33 32 34 40 53 49 118 12 89 13 115 5 120 -4 3 -6 13 -4 23 6 25
-30 78 -67 98 -40 20 -65 23 -107 11z"/>
<path d="M1345 5484 c-14 -7 -25 -11 -25 -8 0 6 -33 -30 -47 -52 -7 -10 -28
-50 -49 -88 -42 -80 -43 -131 -4 -183 22 -31 89 -61 109 -49 6 4 11 1 11 -6 0
-11 2 -11 9 0 4 7 13 12 18 10 20 -6 72 42 99 92 15 27 31 50 36 50 4 0 7 3 6
8 0 4 6 22 14 40 12 28 14 45 9 108 -1 16 -53 69 -76 79 -33 13 -84 13 -110
-1z"/>
<path d="M2470 5307 c-44 -11 -64 -29 -108 -97 -71 -111 -82 -168 -45 -231 10
-16 30 -35 45 -42 16 -6 28 -14 28 -17 0 -5 14 -5 82 -1 28 2 82 56 107 108
14 26 29 51 34 54 5 4 15 29 22 55 18 72 0 111 -77 169 -17 13 -45 13 -88 2z"/>
<path d="M7038 5314 c-3 -3 -21 -8 -40 -11 -20 -3 -44 -17 -63 -38 -16 -19
-48 -53 -69 -77 -51 -56 -68 -109 -51 -164 10 -34 55 -98 55 -78 0 4 7 1 15
-6 36 -29 119 -15 159 28 103 110 121 136 129 188 9 61 -41 136 -98 146 -11 2
-23 6 -26 11 -3 4 -8 5 -11 1z"/>
<path d="M10214 5298 c-33 -16 -55 -37 -60 -58 0 -3 -4 -12 -7 -20 -11 -25
-25 -65 -26 -73 0 -4 -7 -20 -14 -35 -8 -15 -13 -37 -12 -50 1 -13 -2 -25 -6
-28 -15 -9 45 -93 75 -106 33 -13 95 -19 111 -10 6 4 16 7 23 8 28 5 98 125
85 147 -2 4 2 7 9 7 13 0 17 20 20 101 3 104 -100 165 -198 117z"/>
<path d="M7806 5265 c-15 -8 -59 -42 -97 -76 -96 -85 -111 -146 -56 -226 19
-28 57 -50 80 -45 4 1 7 -3 7 -10 0 -9 3 -9 11 -1 6 6 17 9 24 6 38 -14 209
130 221 186 3 14 7 31 8 36 5 18 -24 89 -44 107 -42 39 -105 48 -154 23z"/>
<path d="M4295 5231 c-34 -10 -62 -34 -85 -74 -15 -26 -18 -37 -9 -37 9 0 10
-3 2 -11 -15 -15 -3 -55 36 -123 33 -57 101 -132 123 -134 7 -1 28 -3 46 -6
40 -4 79 13 112 51 20 23 25 39 25 88 0 52 -4 64 -28 90 -15 17 -33 42 -40 58
-6 15 -15 27 -19 27 -5 0 -8 5 -8 11 0 39 -98 77 -155 60z"/>
<path d="M3355 5219 c-4 -5 -10 -7 -14 -5 -21 14 -91 -97 -105 -167 -2 -6 -6
-23 -10 -37 -9 -34 -14 -100 -7 -100 4 0 11 -10 16 -22 15 -35 73 -68 116 -68
44 0 109 28 109 46 0 7 4 14 9 16 11 4 65 166 67 203 4 74 -49 133 -126 140
-27 2 -52 0 -55 -6z"/>
<path d="M275 5165 c-47 -16 -73 -39 -89 -76 -16 -40 -19 -155 -4 -184 18 -34
57 -68 81 -71 12 -1 23 -3 25 -4 8 -7 49 -5 60 3 6 5 12 6 12 3 0 -16 60 36
73 64 23 45 18 177 -8 212 -20 27 -47 45 -75 50 -8 2 -18 8 -22 13 -5 6 -8 4
-8 -5 0 -9 -3 -11 -8 -5 -5 7 -16 7 -37 0z"/>
<path d="M8938 5080 c-38 -18 -141 -116 -169 -160 -16 -26 -18 -91 -4 -125 12
-29 67 -76 82 -71 7 3 15 1 18 -4 4 -7 53 -7 63 1 1 1 7 2 13 3 18 2 113 87
148 133 37 48 46 109 23 155 -15 30 -88 85 -99 75 -3 -4 -13 -2 -22 2 -11 6
-29 3 -53 -9z"/>
<path d="M6062 4975 c-18 -8 -36 -15 -40 -15 -4 -1 -11 -8 -15 -16 -4 -8 -15
-14 -22 -14 -8 0 -15 -4 -15 -10 0 -5 -6 -10 -12 -10 -18 0 -78 -53 -78 -68 0
-7 -4 -12 -8 -12 -7 0 -9 -54 -4 -100 3 -20 41 -64 69 -78 42 -23 101 -14 171
25 70 39 146 108 137 123 -3 5 -1 11 3 14 12 7 5 72 -10 100 -33 62 -110 88
-176 61z"/>
<path d="M1097 4916 c-45 -24 -78 -73 -72 -106 2 -11 0 -18 -6 -15 -5 4 -9 -4
-10 -17 -1 -13 -3 -36 -5 -53 -2 -16 -6 -41 -8 -55 -1 -14 1 -36 6 -49 9 -26
58 -88 58 -74 0 4 4 2 8 -4 12 -19 83 -22 122 -7 41 17 77 65 83 114 3 19 6
35 7 35 3 0 8 35 14 89 5 53 -15 113 -41 123 -7 3 -10 10 -6 17 3 6 3 8 -2 4
-4 -4 -17 -2 -28 4 -35 19 -77 17 -120 -6z"/>
<path d="M7274 4887 c-32 -16 -62 -34 -65 -39 -3 -5 -10 -10 -15 -10 -17 0
-63 -32 -58 -40 3 -4 1 -8 -4 -8 -16 0 -31 -52 -27 -91 4 -43 26 -81 60 -103
25 -16 115 -30 115 -17 0 4 10 7 22 8 11 1 24 6 27 11 3 4 31 21 61 36 64 33
107 77 108 109 0 12 1 27 3 32 7 26 -16 77 -47 105 -19 16 -38 30 -42 31 -58
7 -85 3 -138 -24z"/>
<path d="M4733 4834 c-61 -36 -83 -112 -53 -181 11 -25 56 -64 80 -69 3 0 18
-6 33 -12 16 -7 34 -12 41 -12 7 0 16 -3 20 -7 8 -8 29 -12 76 -15 33 -2 100
20 100 33 0 3 9 16 20 29 37 42 22 140 -27 180 -10 8 -38 22 -63 29 -25 8 -51
19 -57 24 -7 5 -13 6 -13 3 0 -4 -9 -2 -20 4 -41 22 -95 20 -137 -6z"/>
<path d="M3938 4835 c-3 -3 -15 -7 -26 -10 -50 -9 -103 -68 -107 -120 -4 -41
49 -178 83 -213 6 -7 12 -17 12 -21 0 -11 56 -41 64 -34 3 3 6 1 6 -4 0 -7 12
-9 28 -7 15 2 35 5 45 7 23 3 89 56 82 67 -3 5 -1 11 5 15 6 4 8 10 6 14 -3 4
-1 13 3 20 7 11 2 35 -25 114 -4 9 -11 17 -16 17 -5 0 -6 5 -3 10 3 6 1 10 -6
10 -7 0 -10 3 -6 6 7 8 -14 51 -40 80 -19 21 -52 39 -67 35 -4 -1 -14 3 -20 9
-7 5 -15 7 -18 5z"/>
<path d="M5548 4775 c-3 -3 -41 -7 -85 -10 -80 -4 -125 -17 -153 -44 -44 -42
-55 -132 -20 -169 11 -12 20 -25 20 -30 0 -24 80 -42 152 -35 40 3 83 6 96 6
12 1 22 4 22 7 0 3 9 6 20 7 23 2 55 34 72 73 14 31 17 79 6 86 -4 3 -8 13 -8
23 0 22 -50 70 -78 76 -12 2 -26 6 -31 9 -4 3 -10 3 -13 1z"/>
<path d="M9913 4746 c-18 -12 -33 -26 -33 -33 0 -6 -4 -13 -8 -15 -5 -1 -29
-30 -53 -64 -36 -49 -46 -70 -48 -108 -5 -106 109 -176 204 -124 17 9 55 49
85 90 30 40 58 75 61 78 9 7 7 120 -2 120 -4 0 -10 9 -14 19 -17 54 -132 76
-192 37z"/>
<path d="M2224 4726 c-36 -16 -71 -60 -79 -102 -3 -16 -8 -67 -11 -114 -4 -78
-3 -89 18 -119 13 -19 32 -39 43 -45 11 -6 22 -14 25 -17 8 -9 82 -3 112 9 28
11 75 75 75 102 0 19 14 172 16 179 1 3 -7 22 -16 42 -31 63 -117 93 -183 65z"/>
<path d="M8508 4694 c-2 -2 -13 -5 -24 -7 -27 -5 -74 -29 -74 -37 0 -4 -13
-13 -30 -20 -16 -7 -30 -16 -30 -21 0 -5 -5 -9 -11 -9 -21 0 -58 -49 -65 -85
-10 -53 3 -101 36 -132 17 -15 33 -28 38 -29 4 0 15 -4 25 -8 10 -5 24 -3 34
5 12 10 15 11 9 1 -18 -29 92 17 132 55 7 7 17 13 21 13 15 0 70 57 80 84 34
87 -17 172 -111 190 -14 2 -28 3 -30 0z"/>
<path d="M6760 4663 c-8 -3 -22 -7 -30 -9 -8 -3 -15 -4 -15 -3 0 1 -11 -3 -23
-10 -13 -7 -34 -15 -47 -17 -92 -17 -144 -116 -104 -200 15 -30 76 -77 90 -69
4 3 10 1 13 -4 9 -15 155 19 184 42 7 5 15 7 18 4 10 -9 66 46 80 79 7 17 11
39 9 50 -2 10 -4 28 -4 39 -1 24 -37 67 -69 84 -25 13 -78 20 -102 14z"/>
<path d="M3254 4598 c-57 -26 -79 -68 -79 -150 0 -38 3 -68 6 -68 4 0 6 -8 5
-17 -10 -59 58 -161 108 -164 50 -3 91 2 94 11 2 5 9 10 16 10 7 0 23 14 36
32 19 26 24 46 25 96 0 35 -2 65 -6 67 -3 3 -7 17 -7 32 -5 97 -40 143 -120
161 -30 7 -47 5 -78 -10z"/>
<path d="M6156 4512 c-3 -2 -31 -6 -63 -8 -89 -7 -155 -49 -167 -109 -2 -11
-5 -24 -7 -30 -6 -20 12 -71 34 -96 28 -32 95 -59 122 -48 29 11 37 11 29 -3
-6 -10 -5 -10 7 -1 8 6 35 14 60 17 62 7 100 22 127 52 13 13 20 24 16 24 -3
0 -1 6 5 14 35 42 0 149 -56 176 -28 13 -98 22 -107 12z"/>
<path d="M4820 4408 c0 -5 -4 -7 -8 -4 -5 3 -23 -10 -41 -28 -27 -28 -33 -42
-35 -87 -4 -83 20 -113 129 -159 17 -7 39 -17 50 -21 11 -5 29 -10 40 -12 11
-1 25 -6 32 -10 6 -4 14 -3 18 2 3 6 12 8 20 4 20 -7 83 42 97 75 31 78 -4
156 -87 193 -27 12 -66 29 -85 37 -39 18 -130 24 -130 10z"/>
<path d="M7935 4392 c-28 -9 -51 -19 -53 -23 -2 -5 -10 -5 -18 -2 -8 3 -14 0
-14 -6 0 -6 -8 -11 -17 -11 -46 0 -113 -73 -108 -116 1 -13 -1 -24 -6 -24 -4
0 -2 -15 4 -32 15 -43 70 -98 99 -99 49 -3 83 0 103 10 18 8 52 22 65 26 18 5
78 36 91 47 24 20 46 78 43 115 -2 33 -30 83 -46 83 -5 0 -7 4 -4 9 3 5 -2 11
-12 14 -9 3 -31 10 -47 15 -22 7 -44 5 -80 -6z"/>
<path d="M1073 4317 c-22 -12 -77 -57 -69 -57 3 0 -1 -17 -8 -38 -8 -22 -11
-44 -7 -51 5 -7 7 -28 6 -47 -1 -19 2 -34 7 -34 4 0 8 -15 8 -33 0 -19 3 -37
8 -41 4 -4 7 -11 7 -14 1 -15 37 -61 53 -67 86 -36 160 -14 198 57 14 26 17
148 4 148 -3 0 -7 17 -8 37 -2 20 -10 52 -19 70 -17 37 -60 76 -74 67 -5 -3
-9 -1 -9 3 0 12 -75 12 -97 0z"/>
<path d="M4230 4304 c-56 -24 -81 -62 -83 -128 -1 -45 15 -74 79 -141 70 -73
99 -91 148 -94 26 -1 54 3 62 10 8 6 14 8 14 4 0 -14 51 47 61 72 13 36 11 80
-6 113 -15 29 -131 146 -162 163 -25 15 -79 15 -113 1z"/>
<path d="M9506 4306 c-27 -15 -54 -36 -87 -68 -15 -14 -30 -24 -32 -21 -7 7
-56 -61 -60 -83 -1 -10 -6 -24 -10 -31 -4 -6 -3 -14 3 -18 5 -3 10 -17 10 -30
0 -13 5 -27 10 -30 6 -4 8 -10 5 -14 -6 -10 77 -53 107 -56 34 -2 86 21 137
62 58 46 111 100 112 116 6 60 2 87 -15 120 -11 20 -25 37 -32 37 -6 0 -17 6
-23 14 -14 16 -98 18 -125 2z"/>
<path d="M5430 4222 c-40 -11 -77 -33 -95 -57 -23 -33 -27 -107 -8 -147 15
-30 70 -74 80 -64 3 3 11 1 18 -4 7 -5 25 -12 41 -14 16 -2 36 -6 44 -10 27
-11 105 -13 124 -2 37 21 77 64 79 85 1 12 5 21 10 21 5 0 4 7 -3 15 -10 12
-10 15 0 15 9 0 9 4 -1 17 -8 9 -12 18 -10 20 7 9 -22 63 -35 63 -8 0 -14 4
-14 9 0 5 -21 14 -47 20 -134 32 -167 38 -183 33z"/>
<path d="M7340 4204 c-25 -7 -45 -13 -45 -14 0 -1 -17 -3 -38 -5 -129 -14
-170 -184 -61 -256 15 -9 33 -15 40 -12 8 3 14 0 14 -5 0 -11 31 -9 52 4 7 5
8 3 3 -5 -6 -10 -3 -11 11 -3 11 6 47 15 81 22 101 20 159 88 142 169 -19 90
-99 132 -199 105z"/>
<path d="M2293 4119 c-50 -10 -83 -37 -102 -82 -16 -38 -17 -47 -4 -102 8 -33
16 -64 17 -70 1 -5 5 -16 9 -22 5 -7 5 -17 2 -23 -3 -5 -1 -10 4 -10 6 0 11
-6 11 -14 0 -20 62 -77 77 -72 7 3 15 1 18 -5 4 -5 11 -7 16 -4 5 4 9 1 9 -5
0 -6 5 -8 13 -3 6 4 17 8 22 9 30 5 41 11 63 34 49 50 60 124 27 187 -7 14
-12 34 -10 44 2 11 0 19 -6 19 -5 0 -9 8 -9 17 0 22 -40 80 -60 88 -48 18 -68
21 -97 14z"/>
<path d="M5978 4102 c-53 -33 -77 -104 -55 -166 19 -54 68 -88 135 -92 26 -2
69 -5 97 -7 62 -6 103 8 137 47 28 31 30 36 33 91 3 55 -46 121 -95 128 -8 2
-19 5 -25 8 -5 3 -53 6 -105 7 -73 1 -101 -3 -122 -16z"/>
<path d="M6678 4108 c-6 -3 -17 -4 -25 -1 -27 10 -91 -30 -108 -67 -23 -51
-24 -71 -10 -113 11 -32 65 -98 65 -80 0 3 6 1 13 -4 10 -9 119 -9 209 -1 37
4 87 44 103 81 17 41 12 117 -9 132 -9 7 -13 14 -10 17 3 3 -15 15 -39 27 -34
17 -59 21 -111 19 -37 -2 -72 -6 -78 -10z"/>
<path d="M3490 4022 c0 -6 -8 -9 -17 -8 -10 2 -22 -1 -28 -5 -39 -31 -65 -58
-65 -68 0 -6 -4 -11 -8 -11 -10 0 -8 -66 2 -100 4 -14 30 -59 57 -101 64 -98
88 -110 196 -100 7 0 28 17 48 36 27 27 35 44 35 71 0 25 4 33 13 28 10 -6 10
-4 0 7 -7 7 -13 20 -13 29 0 8 -13 33 -28 56 -15 23 -38 59 -52 81 -29 47 -62
74 -93 75 -12 1 -28 6 -34 11 -9 6 -13 6 -13 -1z"/>
<path d="M8945 3927 c-44 -23 -81 -45 -83 -49 -2 -4 -9 -8 -16 -8 -16 0 -53
-79 -51 -110 3 -50 34 -97 78 -116 60 -27 82 -24 177 24 88 45 139 90 142 126
4 57 2 86 -4 86 -5 0 -8 7 -8 15 0 8 -18 28 -39 43 -58 42 -99 40 -196 -11z"/>
<path d="M4729 3919 c-7 -4 -16 -6 -19 -4 -4 2 -21 -9 -39 -25 -18 -17 -29
-30 -25 -30 3 0 1 -7 -6 -15 -29 -35 -9 -131 34 -165 22 -17 103 -66 126 -77
8 -3 17 -10 20 -14 7 -9 90 -18 90 -10 0 4 10 7 21 8 67 5 113 118 76 188 -15
30 -67 85 -67 71 0 -4 -12 1 -27 12 -81 57 -152 81 -184 61z"/>
<path d="M1275 3741 c-42 -14 -75 -35 -75 -46 0 -7 -6 -18 -14 -24 -23 -19
-14 -99 18 -160 56 -108 70 -127 106 -146 32 -16 112 -14 134 4 9 7 16 10 16
5 0 -5 11 7 24 26 13 19 22 38 20 42 -2 4 0 9 5 12 23 15 -20 143 -67 199 -8
9 -11 17 -7 17 13 0 -65 70 -79 71 -6 0 -22 2 -36 4 -14 2 -34 0 -45 -4z"/>
<path d="M8450 3703 c-8 -3 -28 -11 -45 -18 -16 -7 -48 -18 -70 -25 -46 -13
-77 -36 -89 -65 -15 -35 -24 -95 -15 -101 4 -2 6 -11 2 -19 -3 -8 0 -15 6 -15
6 0 11 -6 11 -14 0 -14 42 -47 64 -50 6 -1 16 -5 23 -9 7 -4 25 -5 40 -1 15 3
36 6 46 7 9 1 17 6 17 11 0 5 3 7 6 4 5 -6 44 8 111 39 90 42 100 183 17 238
-27 18 -95 28 -124 18z"/>
<path d="M5308 3654 c-4 -3 -12 -7 -20 -8 -29 -6 -64 -29 -83 -54 -28 -38 -27
-117 2 -157 20 -29 35 -39 93 -62 14 -6 39 -16 55 -23 47 -20 125 -31 125 -18
0 5 4 7 8 4 13 -8 62 29 82 62 13 21 17 45 15 81 -3 73 -40 107 -160 145 -5 2
-17 6 -25 9 -17 6 -82 27 -85 27 -1 0 -4 -3 -7 -6z"/>
<path d="M2524 3553 c-32 -6 -86 -61 -88 -88 0 -14 -5 -25 -9 -25 -28 0 37
-139 96 -204 9 -11 17 -22 17 -26 0 -6 50 -38 63 -39 4 -1 10 -1 15 -2 55 -8
115 19 142 64 33 54 22 138 -24 180 -10 9 -15 17 -10 17 5 0 4 4 -1 8 -6 4
-21 24 -35 45 -39 59 -96 84 -166 70z"/>
<path d="M3839 3520 c-81 -43 -97 -130 -39 -217 8 -13 18 -23 22 -23 4 0 24
-16 45 -36 49 -45 104 -74 142 -74 75 0 135 60 137 135 2 53 -16 86 -73 132
-26 21 -60 49 -76 62 -15 14 -35 27 -45 28 -58 12 -80 11 -113 -7z"/>
<path d="M7850 3523 c0 -6 -12 -9 -27 -7 -15 1 -32 -1 -38 -5 -5 -5 -20 -7
-32 -6 -13 1 -23 -2 -23 -7 0 -5 -4 -7 -10 -3 -5 3 -27 -12 -50 -35 -35 -35
-45 -55 -41 -82 0 -4 2 -21 3 -37 1 -17 6 -31 11 -31 4 0 6 -3 3 -8 -15 -25
73 -79 124 -76 55 4 113 15 132 25 9 5 26 9 38 9 38 0 87 59 98 117 5 29 5 50
1 47 -5 -3 -9 3 -9 13 0 10 -14 33 -30 52 -26 28 -39 34 -90 38 -37 4 -60 2
-60 -4z"/>
<path d="M5915 3484 c-5 -1 -22 -5 -36 -8 -46 -10 -88 -56 -97 -107 -16 -84
38 -155 127 -166 20 -3 41 -8 46 -12 6 -4 42 -7 80 -6 54 0 76 5 97 20 40 29
61 78 54 128 -3 23 -5 45 -5 49 -1 4 -13 19 -28 33 -29 27 -75 45 -121 49 -15
1 -32 4 -37 7 -6 3 -21 5 -35 5 -14 -1 -27 2 -30 5 -3 3 -9 5 -15 3z"/>
<path d="M7275 3432 c-2 -2 -35 -6 -72 -9 -37 -2 -75 -6 -83 -10 -8 -3 -21 -7
-28 -9 -21 -4 -53 -36 -65 -64 -14 -32 -16 -91 -4 -107 5 -7 6 -13 1 -13 -13
0 39 -51 68 -66 28 -15 143 -15 166 0 7 4 12 3 12 -2 0 -5 18 -5 43 2 42 10
106 63 108 88 1 7 2 27 4 43 4 35 -31 115 -50 115 -7 0 -15 5 -17 10 -2 6 -13
12 -26 13 -12 0 -22 4 -22 7 0 8 -28 9 -35 2z"/>
<path d="M6469 3392 c-59 -29 -90 -107 -67 -173 14 -41 62 -80 104 -86 73 -9
218 -5 222 6 2 6 10 11 17 11 17 0 51 47 60 83 10 39 -2 88 -28 117 -28 31
-65 53 -77 45 -6 -4 -10 -3 -10 2 0 15 -188 10 -221 -5z"/>
<path d="M9255 3336 c-45 -16 -107 -56 -132 -85 -25 -28 -33 -80 -21 -131 11
-49 84 -99 135 -94 51 6 57 8 74 26 9 10 18 15 21 12 3 -2 25 15 50 39 42 40
45 46 43 93 -2 71 -26 111 -80 131 -53 20 -59 20 -90 9z"/>
<path d="M1593 3230 c-15 -10 -35 -26 -43 -36 -19 -24 -41 -84 -30 -84 4 0 7
-8 7 -17 0 -10 1 -25 2 -34 1 -19 155 -178 174 -180 89 -8 106 -5 146 30 30
26 48 80 43 128 -4 31 -19 52 -86 120 -79 81 -83 84 -133 87 -37 2 -60 -2 -80
-14z"/>
<path d="M4337 3151 c-33 -24 -65 -84 -58 -106 2 -5 4 -20 5 -33 1 -13 13 -37
27 -55 28 -35 176 -117 218 -121 67 -6 150 56 142 107 0 4 3 7 8 7 15 0 -10
94 -31 116 -10 12 -37 30 -58 40 -22 10 -40 23 -40 27 0 5 -4 5 -10 2 -5 -3
-10 -3 -10 2 0 15 -86 44 -123 41 -19 -1 -51 -13 -70 -27z"/>
<path d="M2899 3067 c-43 -23 -77 -80 -73 -122 7 -69 44 -114 166 -202 35 -26
115 -32 136 -11 7 7 12 9 12 4 0 -4 6 -1 13 6 75 77 69 174 -14 238 -18 14
-44 37 -58 51 -56 55 -123 69 -182 36z"/>
<path d="M8749 3053 c-7 -7 -14 -11 -17 -8 -3 3 -12 -1 -20 -7 -7 -7 -23 -14
-35 -15 -12 -2 -30 -11 -40 -21 -11 -9 -21 -16 -23 -14 -7 4 -27 -11 -46 -34
-20 -23 -41 -114 -27 -114 5 0 9 -9 9 -19 0 -29 72 -85 112 -88 44 -3 191 54
235 92 19 17 36 39 38 50 2 11 4 20 5 20 1 0 3 15 5 33 1 17 -1 32 -6 32 -5 0
-8 3 -8 8 4 27 -20 61 -60 82 -35 18 -109 20 -122 3z"/>
<path d="M4898 2879 c-21 -20 -38 -45 -38 -57 0 -11 -5 -24 -10 -27 -6 -4 -8
-11 -5 -16 4 -5 8 -19 10 -30 10 -49 74 -109 118 -109 9 0 17 -4 17 -8 0 -5 6
-9 13 -10 6 0 35 -7 64 -15 84 -24 145 -2 179 65 17 33 18 100 2 116 -7 7 -9
12 -4 12 4 0 -5 13 -21 28 -28 28 -116 66 -127 54 -3 -3 -6 -1 -6 5 0 13 -51
26 -109 28 -38 1 -50 -4 -83 -36z"/>
<path d="M2068 2836 c-28 -12 -70 -54 -77 -77 -5 -18 -5 -79 1 -99 8 -30 24
-48 76 -85 92 -65 182 -56 231 25 23 39 19 110 -9 150 -12 17 -25 30 -29 30
-4 0 -16 8 -27 18 -52 45 -114 59 -166 38z"/>
<path d="M8210 2838 c0 -5 -4 -7 -8 -4 -9 6 -157 -35 -189 -52 -73 -40 -88
-150 -30 -212 43 -45 85 -54 159 -34 35 9 70 17 79 18 29 4 93 43 113 70 16
21 21 42 20 84 0 33 -6 58 -12 60 -7 2 -12 9 -12 16 0 7 -17 21 -37 32 -21 10
-40 21 -43 24 -9 9 -40 8 -40 -2z"/>
<path d="M5587 2744 c-1 -1 -15 -5 -31 -8 -32 -6 -99 -64 -90 -78 3 -5 1 -14
-4 -21 -5 -7 -8 -23 -7 -37 9 -76 39 -112 115 -134 16 -5 106 -19 113 -18 4 1
7 -2 7 -6 0 -11 77 -4 103 9 96 50 101 195 8 243 -27 14 -207 56 -214 50z"/>
<path d="M3415 2705 c-20 -7 -45 -24 -55 -36 -11 -13 -23 -29 -28 -34 -5 -6
-8 -18 -6 -28 1 -9 -2 -20 -7 -23 -6 -4 -6 -10 0 -17 10 -13 11 -17 11 -42 0
-14 26 -43 74 -83 9 -7 16 -10 16 -6 0 4 8 0 18 -8 9 -8 24 -18 32 -22 8 -4
30 -15 49 -25 56 -30 127 -12 173 43 10 12 17 29 18 39 0 9 5 17 11 17 5 0 7
5 3 12 -4 7 -9 24 -10 37 -6 57 -31 80 -158 150 -68 38 -91 43 -141 26z"/>
<path d="M7567 2694 c-2 -3 -81 -15 -117 -19 -14 -2 -29 -3 -33 -4 -10 -1 -77
-68 -78 -78 -12 -82 -3 -121 38 -160 13 -12 23 -19 23 -16 0 3 6 0 14 -6 8 -7
32 -12 53 -12 36 -1 50 1 133 17 19 3 41 7 48 7 6 0 12 4 12 9 0 4 3 7 8 5 11
-3 62 39 55 47 -3 3 -2 6 4 6 5 0 10 6 11 13 0 6 3 23 6 37 7 30 -10 87 -33
112 -23 24 -84 48 -116 46 -14 -1 -27 -3 -28 -4z"/>
<path d="M6140 2621 c-22 -14 -40 -31 -40 -38 0 -7 -4 -13 -8 -13 -10 0 -13
-18 -12 -74 0 -45 38 -102 78 -117 42 -16 199 -27 242 -17 22 5 92 76 85 87
-3 5 -1 12 3 15 17 10 1 80 -24 114 -38 49 -61 55 -232 66 -43 3 -59 -1 -92
-23z"/>
<path d="M6810 2617 c0 -5 -6 -7 -14 -4 -8 3 -28 -9 -47 -28 -31 -32 -35 -41
-43 -94 -4 -25 14 -73 37 -103 19 -25 90 -48 124 -41 15 3 37 5 48 4 23 -3 28
-2 75 2 49 4 110 40 110 65 0 5 6 14 13 20 34 28 -2 137 -57 173 -24 15 -246
21 -246 6z"/>
<path d="M3980 2428 c0 -4 -3 -7 -7 -7 -18 3 -31 -2 -50 -18 -64 -57 -64 -162
1 -214 17 -14 141 -69 169 -75 4 -1 9 -3 12 -4 14 -6 85 -4 85 3 0 4 11 12 24
17 24 9 69 63 60 72 -2 3 0 17 5 32 6 14 7 26 3 26 -4 0 -9 11 -10 25 -3 36
-51 80 -114 103 -29 11 -66 26 -83 33 -35 14 -95 19 -95 7z"/>
<path d="M4552 2233 c-13 -3 -26 -11 -29 -19 -3 -8 -9 -12 -13 -9 -11 7 -44
-64 -46 -100 -2 -39 24 -105 42 -105 8 0 14 -4 14 -9 0 -9 42 -26 89 -36 11
-3 29 -7 39 -9 85 -21 103 -23 108 -15 3 5 9 7 13 4 9 -5 91 50 92 63 0 4 3
16 5 27 11 49 10 67 -7 106 -11 23 -28 43 -39 46 -11 3 -20 9 -20 14 0 5 -10
9 -23 9 -13 0 -28 5 -35 12 -7 7 -12 9 -12 6 0 -3 -26 0 -57 8 -59 14 -80 15
-121 7z"/>
<path d="M5121 2088 c-18 -17 -37 -41 -42 -55 -32 -84 28 -180 119 -188 40 -4
119 -14 130 -17 4 -1 26 1 48 5 30 5 51 17 73 42 17 20 32 41 32 48 10 88 -10
134 -71 167 -29 16 -52 19 -170 25 -84 4 -86 3 -119 -27z"/>
<path d="M5752 2056 c-17 -12 -32 -26 -32 -33 0 -6 -5 -13 -11 -15 -6 -2 -14
-26 -16 -53 -4 -42 0 -57 22 -91 34 -50 73 -66 161 -63 48 2 74 8 97 23 90 60
78 200 -19 241 -52 22 -162 17 -202 -9z"/>
</g>
</svg>
